<svg width="61" height="61" viewBox="0 0 61 61" fill="none" xmlns="http://www.w3.org/2000/svg">
<circle cx="30.5" cy="30.5" r="30.5" fill="#C988F0"/>
<path d="M8.224 38.336C9.688 38.336 10.768 37.16 10.768 35.672C10.768 34.184 9.688 33.032 8.224 33.032C6.736 33.032 5.68 34.184 5.68 35.672C5.68 37.16 6.736 38.336 8.224 38.336ZM19.0381 38.336C20.3341 38.336 21.6541 37.64 22.6141 36.68H22.7101L23.0221 38H26.5021V18.824H22.2301V23.384L22.3741 25.424C21.4861 24.56 20.5981 24.008 19.0861 24.008C16.2541 24.008 13.4461 26.696 13.4461 31.16C13.4461 35.624 15.6301 38.336 19.0381 38.336ZM20.1661 34.832C18.7021 34.832 17.8381 33.728 17.8381 31.112C17.8381 28.592 18.9181 27.488 20.0941 27.488C20.8141 27.488 21.5821 27.704 22.2301 28.304V33.68C21.6301 34.568 20.9821 34.832 20.1661 34.832ZM36.1309 38.336C37.7149 38.336 39.5869 37.784 41.0029 36.776L39.5869 34.208C38.6029 34.784 37.6909 35.072 36.7069 35.072C34.9789 35.072 33.6829 34.304 33.2989 32.432H41.3149C41.4109 32.096 41.5069 31.352 41.5069 30.584C41.5069 26.864 39.5869 24.008 35.6509 24.008C32.3629 24.008 29.1709 26.744 29.1709 31.16C29.1709 35.696 32.1949 38.336 36.1309 38.336ZM33.2269 29.624C33.5149 28.016 34.5469 27.272 35.7229 27.272C37.2829 27.272 37.8829 28.28 37.8829 29.624H33.2269ZM46.9814 38H51.9254L56.3414 24.344H52.2374L50.5574 30.632C50.2214 31.976 49.8854 33.392 49.5494 34.832H49.4294C49.0694 33.392 48.7574 31.976 48.3974 30.632L46.7414 24.344H42.4454L46.9814 38Z" fill="white"/>
</svg>
